<svg id="svg" version="1.1" xmlns="http://www.w3.org/2000/svg" xmlns:xlink="http://www.w3.org/1999/xlink" width="400" height="400" viewBox="0, 0, 400,400"><g id="svgg"><path id="path0" d="M190.600 17.200 C 190.447 17.447,191.144 17.600,192.422 17.600 C 197.512 17.600,200.899 22.319,198.152 25.584 C 194.265 30.204,186.400 27.702,186.400 21.846 C 186.400 21.050,186.220 20.400,186.000 20.400 C 185.780 20.400,185.600 20.749,185.600 21.176 C 185.600 21.603,185.420 22.064,185.200 22.200 C 184.591 22.576,184.707 28.928,185.344 30.158 C 188.949 37.106,201.451 37.106,205.056 30.158 C 205.693 28.928,205.809 22.576,205.200 22.200 C 204.980 22.064,204.800 21.673,204.800 21.330 C 204.800 20.524,201.605 17.600,200.724 17.600 C 200.352 17.600,199.936 17.420,199.800 17.200 C 199.660 16.973,197.670 16.800,195.200 16.800 C 192.730 16.800,190.740 16.973,190.600 17.200 M156.200 26.800 C 156.044 27.052,156.990 27.200,158.758 27.200 C 162.284 27.200,164.453 27.975,167.835 30.443 C 174.260 35.131,175.969 46.182,171.267 52.634 C 163.370 63.470,148.741 60.167,145.600 46.838 C 145.006 44.319,145.276 36.708,145.967 36.478 C 146.205 36.398,146.396 35.943,146.391 35.467 C 146.378 34.182,145.038 36.008,144.398 38.181 C 144.136 39.071,143.760 40.113,143.561 40.495 C 143.041 41.494,143.116 50.680,143.657 52.372 C 144.349 54.534,146.474 58.800,146.860 58.800 C 147.047 58.800,147.205 59.025,147.212 59.300 C 147.226 59.926,149.447 62.400,149.994 62.400 C 150.217 62.400,150.400 62.580,150.400 62.800 C 150.400 63.020,150.655 63.200,150.967 63.200 C 151.278 63.200,151.593 63.335,151.667 63.500 C 151.740 63.665,152.700 64.225,153.800 64.744 C 154.900 65.263,156.113 65.848,156.495 66.044 C 157.828 66.728,162.245 66.419,165.781 65.394 C 173.201 63.244,175.672 61.684,177.415 58.047 C 177.847 57.146,178.335 56.407,178.500 56.405 C 178.665 56.402,178.800 56.051,178.800 55.624 C 178.800 55.197,178.980 54.736,179.200 54.600 C 179.420 54.464,179.600 53.924,179.600 53.400 C 179.600 52.876,179.780 52.336,180.000 52.200 C 180.237 52.054,180.400 49.604,180.400 46.200 C 180.400 42.796,180.237 40.346,180.000 40.200 C 179.780 40.064,179.600 39.629,179.600 39.233 C 179.600 38.039,177.110 33.589,175.349 31.633 C 173.911 30.037,172.222 28.982,167.505 26.731 C 166.505 26.254,156.500 26.315,156.200 26.800 M148.949 30.902 C 147.354 32.722,147.116 33.354,148.580 31.879 C 149.411 31.042,150.011 30.278,149.914 30.180 C 149.816 30.083,149.382 30.407,148.949 30.902 M334.000 42.400 C 334.000 42.641,335.660 42.800,338.180 42.800 C 364.183 42.800,378.259 74.004,361.673 94.876 C 345.745 114.919,315.168 106.099,310.179 80.023 C 309.212 74.972,309.958 63.434,311.288 62.867 C 311.459 62.793,311.600 62.298,311.600 61.767 C 311.600 61.235,311.780 60.800,312.000 60.800 C 312.220 60.800,312.400 60.476,312.400 60.080 C 312.400 59.684,312.560 59.189,312.755 58.980 C 312.950 58.771,313.236 58.150,313.391 57.600 C 313.616 56.797,313.467 56.891,312.636 58.079 C 312.066 58.892,311.600 59.747,311.600 59.979 C 311.600 60.210,311.420 60.400,311.200 60.400 C 310.980 60.400,310.800 60.749,310.800 61.176 C 310.800 61.603,310.620 62.064,310.400 62.200 C 310.180 62.336,310.000 62.876,310.000 63.400 C 310.000 63.924,309.841 64.451,309.648 64.570 C 309.277 64.800,309.231 64.956,308.230 69.400 C 307.497 72.658,307.372 81.831,308.022 84.723 C 308.925 88.740,309.540 90.713,310.447 92.495 C 310.641 92.877,310.800 93.462,310.800 93.795 C 310.800 94.128,310.936 94.400,311.102 94.400 C 311.269 94.400,311.663 94.985,311.978 95.700 C 312.293 96.415,312.787 97.238,313.075 97.529 C 313.364 97.819,313.604 98.269,313.609 98.529 C 313.614 98.788,314.199 99.652,314.909 100.449 C 315.619 101.246,316.560 102.335,317.000 102.869 C 317.440 103.402,318.700 104.550,319.800 105.420 C 320.900 106.289,321.860 107.135,321.933 107.300 C 322.007 107.465,322.244 107.600,322.461 107.600 C 322.678 107.600,323.641 108.140,324.600 108.800 C 325.559 109.460,326.449 110.000,326.576 110.000 C 326.704 110.000,327.572 110.335,328.504 110.744 C 333.774 113.054,344.825 113.683,350.847 112.014 C 353.914 111.164,359.600 108.525,359.600 107.952 C 359.600 107.759,359.799 107.600,360.043 107.600 C 360.721 107.600,365.301 103.836,366.414 102.364 C 366.956 101.648,367.805 100.651,368.300 100.149 C 368.795 99.647,369.200 99.041,369.200 98.801 C 369.200 98.562,369.549 97.992,369.976 97.533 C 370.403 97.075,371.231 95.508,371.816 94.050 C 372.401 92.593,373.042 91.087,373.240 90.705 C 373.438 90.323,373.600 89.659,373.600 89.229 C 373.600 88.799,373.780 88.336,374.000 88.200 C 374.220 88.064,374.400 87.333,374.400 86.576 C 374.400 85.819,374.580 85.200,374.800 85.200 C 375.053 85.200,375.200 82.408,375.200 77.624 C 375.200 73.004,375.044 69.951,374.800 69.800 C 374.580 69.664,374.400 68.944,374.400 68.200 C 374.400 67.456,374.220 66.736,374.000 66.600 C 373.780 66.464,373.600 65.924,373.600 65.400 C 373.600 64.876,373.420 64.336,373.200 64.200 C 372.980 64.064,372.800 63.662,372.800 63.306 C 372.800 62.425,369.992 56.800,369.552 56.800 C 369.359 56.800,369.200 56.522,369.200 56.182 C 369.200 55.842,368.795 55.153,368.300 54.651 C 367.805 54.149,366.956 53.152,366.414 52.436 C 365.301 50.964,360.721 47.200,360.043 47.200 C 359.799 47.200,359.600 47.047,359.600 46.860 C 359.600 46.673,358.385 45.934,356.900 45.218 C 355.415 44.502,353.881 43.751,353.491 43.549 C 353.101 43.347,351.972 43.071,350.980 42.935 C 349.989 42.799,349.082 42.533,348.965 42.344 C 348.658 41.847,334.000 41.902,334.000 42.400 M255.800 46.800 C 255.642 47.056,256.875 47.200,259.215 47.200 C 277.666 47.200,287.448 66.233,275.253 78.407 C 264.097 89.544,244.867 84.579,240.372 69.400 L 239.661 67.000 239.631 69.216 C 239.370 88.080,265.207 97.060,279.691 83.140 C 281.567 81.336,282.863 80.400,283.483 80.400 C 284.015 80.400,284.538 80.095,284.683 79.700 C 284.825 79.315,285.056 78.910,285.195 78.800 C 286.855 77.489,287.831 66.695,286.642 62.800 C 285.870 60.275,284.669 57.600,284.306 57.600 C 284.138 57.600,284.000 57.329,284.000 56.997 C 284.000 56.201,277.866 50.000,277.079 50.000 C 276.742 50.000,276.407 49.857,276.333 49.681 C 276.125 49.182,272.395 47.549,270.915 47.309 C 270.181 47.190,269.484 46.936,269.367 46.746 C 269.062 46.253,256.106 46.304,255.800 46.800 M323.226 46.969 C 322.839 47.435,322.902 47.498,323.577 47.322 C 324.030 47.204,324.400 46.948,324.400 46.753 C 324.400 46.214,323.754 46.332,323.226 46.969 M317.689 51.089 C 316.775 52.119,316.110 53.044,316.211 53.145 C 316.312 53.246,316.767 52.894,317.222 52.364 C 317.676 51.834,318.411 50.978,318.854 50.463 C 319.297 49.948,319.590 49.456,319.505 49.371 C 319.420 49.286,318.603 50.059,317.689 51.089 M314.264 55.129 C 313.899 55.533,313.600 56.018,313.600 56.207 C 313.600 56.396,313.978 56.145,314.440 55.649 C 314.902 55.153,315.201 54.668,315.104 54.571 C 315.008 54.474,314.630 54.725,314.264 55.129 M241.693 56.000 C 241.418 56.440,241.298 56.800,241.425 56.800 C 241.725 56.800,242.800 55.727,242.800 55.429 C 242.800 54.920,242.162 55.249,241.693 56.000 M239.894 59.203 C 239.077 61.090,239.002 62.132,239.700 61.902 C 239.975 61.812,240.256 61.077,240.324 60.269 C 240.392 59.461,240.617 58.800,240.824 58.800 C 241.031 58.800,241.200 58.530,241.200 58.200 C 241.200 57.113,240.600 57.573,239.894 59.203 M122.800 72.766 C 122.800 73.059,124.798 73.200,128.969 73.200 C 132.363 73.200,136.098 73.399,137.269 73.642 C 140.398 74.291,144.420 75.233,144.979 75.447 C 145.295 75.569,145.467 75.216,145.467 74.446 C 145.467 73.601,145.226 73.175,144.633 72.970 C 143.178 72.467,122.800 72.276,122.800 72.766 M120.180 73.239 C 119.564 73.480,119.673 73.550,120.700 73.572 C 121.415 73.587,122.000 73.450,122.000 73.267 C 122.000 72.851,121.203 72.838,120.180 73.239 M146.833 75.755 C 146.925 75.840,148.439 76.673,150.197 77.606 C 164.186 85.028,169.146 95.604,163.723 106.445 C 152.894 128.091,107.765 128.103,97.054 106.462 C 94.856 102.019,93.878 91.841,95.596 91.268 C 95.818 91.194,96.000 90.698,96.000 90.167 C 96.000 89.635,96.180 89.200,96.400 89.200 C 96.620 89.200,96.800 88.945,96.800 88.633 C 96.800 88.322,97.025 87.986,97.300 87.888 C 97.575 87.790,97.663 87.563,97.496 87.384 C 96.938 86.786,94.359 91.259,93.481 94.348 C 92.439 98.018,92.825 107.976,94.064 109.380 C 94.249 109.589,94.400 110.084,94.400 110.480 C 94.400 110.876,94.580 111.200,94.800 111.200 C 95.020 111.200,95.200 111.560,95.200 112.000 C 95.200 112.440,95.359 112.800,95.553 112.800 C 95.748 112.800,96.001 113.160,96.116 113.600 C 96.268 114.180,96.662 114.400,97.549 114.400 C 98.527 114.400,99.318 114.945,101.486 117.113 C 120.365 135.985,161.426 130.575,169.680 108.129 C 174.100 96.108,164.732 80.903,150.400 76.833 C 149.410 76.552,148.287 76.160,147.905 75.961 C 147.207 75.598,146.523 75.466,146.833 75.755 M100.400 83.184 C 99.410 84.054,98.743 84.774,98.918 84.783 C 99.093 84.792,99.661 84.395,100.181 83.900 C 100.700 83.405,101.539 82.685,102.044 82.300 C 102.549 81.915,102.791 81.600,102.581 81.601 C 102.372 81.602,101.390 82.314,100.400 83.184 M252.151 108.418 C 261.383 114.593,262.584 125.280,254.857 132.508 C 244.900 141.822,227.007 137.966,222.974 125.637 C 221.729 121.831,221.265 122.606,222.058 127.167 C 224.378 140.507,240.343 147.455,253.892 141.021 C 268.140 134.254,268.437 114.913,254.397 108.149 C 249.791 105.930,248.638 106.069,252.151 108.418 M162.400 159.580 C 162.400 159.759,163.034 160.389,163.809 160.980 C 172.258 167.424,171.201 180.301,161.868 184.624 C 154.380 188.094,146.932 184.192,143.993 175.258 L 143.250 173.000 143.225 175.016 C 143.104 184.757,151.192 192.425,160.557 191.447 C 173.991 190.043,179.423 172.185,169.249 162.874 C 167.127 160.931,162.400 158.658,162.400 159.580 M304.200 171.147 C 343.455 191.362,327.387 242.800,281.818 242.800 C 258.773 242.800,241.514 229.501,237.173 208.400 C 236.596 205.594,236.467 205.292,236.437 206.671 C 236.367 209.831,237.293 215.153,238.719 219.800 C 245.072 240.490,273.317 253.371,298.000 246.836 C 337.786 236.301,343.639 188.992,307.318 171.519 C 301.453 168.698,298.837 168.386,304.200 171.147 M66.800 205.200 C 66.345 205.494,66.514 205.589,67.500 205.594 C 68.215 205.597,68.800 205.420,68.800 205.200 C 68.800 204.692,67.586 204.692,66.800 205.200 M92.488 209.113 C 130.383 228.749,123.778 291.017,82.930 299.234 C 57.505 304.349,34.000 281.517,34.000 251.707 C 34.000 247.012,35.418 237.773,36.425 235.905 C 36.631 235.523,36.800 234.758,36.800 234.205 C 36.800 233.652,36.980 233.200,37.200 233.200 C 37.420 233.200,37.600 232.750,37.600 232.200 C 37.600 231.650,37.764 231.200,37.965 231.200 C 38.166 231.200,38.451 230.480,38.600 229.600 C 38.749 228.720,39.014 228.000,39.189 228.000 C 39.364 228.000,39.618 227.685,39.754 227.300 C 39.889 226.915,40.105 226.375,40.234 226.100 C 40.362 225.825,40.317 225.602,40.133 225.603 C 39.950 225.605,39.106 227.090,38.258 228.903 C 37.410 230.717,36.555 232.513,36.358 232.895 C 36.161 233.277,36.000 233.862,36.000 234.195 C 36.000 234.528,35.820 234.800,35.600 234.800 C 35.380 234.800,35.200 235.239,35.200 235.776 C 35.200 236.313,35.041 236.851,34.846 236.971 C 34.651 237.092,34.402 237.687,34.291 238.295 C 34.180 238.903,33.759 240.480,33.354 241.800 C 32.396 244.928,32.237 265.270,33.145 268.600 C 34.213 272.513,35.520 276.273,36.447 278.095 C 36.641 278.477,36.800 279.062,36.800 279.395 C 36.800 279.728,36.980 280.000,37.200 280.000 C 37.420 280.000,37.600 280.280,37.600 280.623 C 37.600 281.489,40.554 286.666,41.581 287.600 C 41.702 287.710,42.067 288.315,42.392 288.945 C 43.509 291.109,51.095 298.404,53.849 299.962 C 54.469 300.313,55.184 300.790,55.438 301.021 C 55.692 301.253,56.913 301.880,58.150 302.414 C 59.388 302.948,60.400 303.524,60.400 303.693 C 60.400 303.862,60.749 304.000,61.176 304.000 C 61.603 304.000,62.064 304.180,62.200 304.400 C 62.336 304.620,62.876 304.800,63.400 304.800 C 63.924 304.800,64.464 304.980,64.600 305.200 C 64.736 305.420,65.276 305.600,65.800 305.600 C 66.324 305.600,66.849 305.756,66.967 305.947 C 67.822 307.330,88.578 307.330,89.433 305.947 C 89.551 305.756,89.999 305.600,90.429 305.600 C 90.859 305.600,91.523 305.441,91.905 305.247 C 92.578 304.904,93.150 304.659,95.900 303.536 C 96.615 303.244,97.200 302.869,97.200 302.702 C 97.200 302.536,97.535 302.400,97.944 302.400 C 98.353 302.400,99.351 301.950,100.162 301.400 C 100.972 300.850,101.808 300.400,102.018 300.400 C 102.228 300.400,102.400 300.220,102.400 300.000 C 102.400 299.780,102.625 299.600,102.900 299.600 C 104.008 299.598,105.600 297.723,105.600 296.417 C 105.600 295.353,106.098 294.628,108.453 292.264 C 132.109 268.514,125.056 223.420,95.490 209.379 C 90.947 207.221,88.403 206.996,92.488 209.113 M46.786 217.091 C 45.584 218.352,45.132 218.937,45.782 218.391 C 47.205 217.198,47.571 216.841,48.562 215.688 C 50.046 213.960,48.942 214.832,46.786 217.091 M43.079 220.957 C 42.915 221.374,42.875 221.809,42.991 221.924 C 43.355 222.289,43.676 221.691,43.524 220.931 C 43.383 220.235,43.362 220.236,43.079 220.957 M41.006 224.288 L 40.304 225.400 41.230 224.511 C 41.739 224.022,42.055 223.522,41.932 223.399 C 41.809 223.276,41.392 223.676,41.006 224.288 M169.853 235.803 C 188.264 246.239,179.742 269.208,157.400 269.366 C 145.965 269.447,137.714 264.197,134.550 254.825 L 133.664 252.200 133.638 254.000 C 133.357 273.519,163.613 282.738,178.821 267.767 C 188.839 257.906,186.000 242.799,172.869 236.100 C 168.635 233.939,166.131 233.693,169.853 235.803 M337.037 257.940 C 336.921 258.128,337.586 258.506,338.513 258.782 C 350.832 262.442,357.042 271.456,354.010 281.275 C 348.373 299.523,320.165 299.113,313.946 280.693 L 312.834 277.400 312.817 279.280 C 312.792 282.053,313.521 285.030,315.030 288.324 C 315.957 290.347,316.302 291.592,316.148 292.361 C 315.907 293.563,318.409 296.452,320.722 297.643 C 321.315 297.949,321.890 298.291,322.000 298.405 C 322.210 298.621,325.633 300.275,327.000 300.821 C 330.937 302.391,342.229 302.355,345.295 300.761 C 345.677 300.562,346.352 300.400,346.795 300.400 C 347.238 300.400,347.600 300.220,347.600 300.000 C 347.600 299.780,347.960 299.600,348.400 299.600 C 348.840 299.600,349.200 299.420,349.200 299.200 C 349.200 298.980,349.545 298.800,349.967 298.800 C 350.388 298.800,350.793 298.658,350.867 298.484 C 350.940 298.310,351.849 297.564,352.886 296.826 C 354.842 295.435,358.000 291.978,358.000 291.228 C 358.000 290.993,358.136 290.800,358.302 290.800 C 358.572 290.800,358.902 290.134,359.984 287.400 C 360.158 286.960,360.503 286.097,360.750 285.481 C 361.312 284.085,361.354 274.542,360.800 274.200 C 360.580 274.064,360.400 273.601,360.400 273.171 C 360.400 272.741,360.220 272.032,360.000 271.595 C 359.780 271.158,359.420 270.440,359.200 270.000 C 357.243 266.086,353.454 262.128,350.300 260.702 C 349.695 260.429,349.200 260.069,349.200 259.902 C 349.200 259.736,348.928 259.600,348.595 259.600 C 348.262 259.600,347.677 259.426,347.295 259.213 C 344.861 257.855,337.643 256.960,337.037 257.940 M292.021 310.271 C 313.118 320.638,305.829 339.551,279.104 343.783 C 261.557 346.562,242.215 339.842,237.992 329.500 C 236.485 325.811,235.981 326.535,236.947 331.000 C 237.486 333.490,238.335 335.403,239.749 337.315 C 240.436 338.246,240.492 338.561,240.083 339.215 C 239.408 340.296,239.932 341.006,243.027 343.200 C 244.424 344.190,245.574 345.135,245.583 345.300 C 245.592 345.465,245.960 345.600,246.400 345.600 C 246.840 345.600,247.201 345.735,247.201 345.900 C 247.202 346.065,248.057 346.528,249.101 346.929 C 250.146 347.329,251.313 347.824,251.695 348.029 C 252.077 348.233,252.752 348.400,253.195 348.400 C 253.638 348.400,254.000 348.580,254.000 348.800 C 254.000 349.020,254.439 349.200,254.976 349.200 C 255.513 349.200,256.064 349.380,256.200 349.600 C 256.336 349.820,257.031 350.000,257.744 350.000 C 258.457 350.000,259.211 350.162,259.420 350.359 C 260.859 351.719,285.141 351.719,286.580 350.359 C 286.789 350.162,287.543 350.000,288.256 350.000 C 288.969 350.000,289.664 349.820,289.800 349.600 C 289.936 349.380,290.487 349.200,291.024 349.200 C 291.561 349.200,292.000 349.020,292.000 348.800 C 292.000 348.580,292.362 348.400,292.805 348.400 C 293.248 348.400,293.923 348.249,294.305 348.064 C 301.417 344.628,302.491 343.933,305.598 340.758 C 307.589 338.723,308.400 337.752,308.400 337.403 C 308.400 337.276,308.715 336.691,309.100 336.104 C 310.882 333.383,311.473 326.001,310.180 322.600 C 309.845 321.720,309.467 320.685,309.339 320.300 C 309.211 319.915,308.948 319.600,308.753 319.600 C 308.559 319.600,308.400 319.330,308.400 319.000 C 308.400 318.670,308.265 318.395,308.100 318.389 C 307.935 318.383,307.384 317.708,306.876 316.889 C 306.368 316.070,304.748 314.500,303.276 313.400 C 301.804 312.300,300.540 311.265,300.467 311.100 C 300.393 310.935,299.275 310.800,297.981 310.800 C 296.573 310.800,294.816 310.479,293.600 310.000 C 290.546 308.796,289.416 308.990,292.021 310.271 " stroke="none" fill="#d15151" fill-rule="evenodd"></path><path id="path1" d="M188.823 17.891 C 185.296 19.281,185.777 25.003,189.602 27.153 C 194.848 30.102,201.431 25.105,198.307 20.546 C 196.615 18.077,191.783 16.724,188.823 17.891 M153.086 28.174 C 151.147 29.158,147.220 32.983,147.207 33.900 C 147.203 34.175,147.020 34.400,146.800 34.400 C 146.580 34.400,146.400 34.835,146.400 35.367 C 146.400 35.898,146.205 36.398,145.967 36.478 C 145.276 36.708,145.006 44.319,145.600 46.838 C 148.741 60.167,163.370 63.470,171.267 52.634 C 175.969 46.182,174.260 35.131,167.835 30.443 C 165.899 29.030,165.279 28.694,162.681 27.650 C 160.556 26.795,155.230 27.087,153.086 28.174 M331.500 43.091 C 330.675 43.178,330.000 43.417,330.000 43.624 C 330.000 43.831,329.550 44.000,329.000 44.000 C 328.450 44.000,328.000 44.180,328.000 44.400 C 328.000 44.620,327.640 44.800,327.200 44.800 C 326.760 44.800,326.400 44.980,326.400 45.200 C 326.400 45.420,326.052 45.600,325.627 45.600 C 325.202 45.600,324.750 45.915,324.624 46.300 C 324.497 46.685,323.346 47.518,322.066 48.151 C 320.786 48.785,319.303 49.860,318.769 50.541 C 318.236 51.222,317.215 52.322,316.500 52.987 C 315.785 53.651,315.200 54.421,315.200 54.697 C 315.200 54.974,315.041 55.200,314.846 55.200 C 314.651 55.200,314.192 55.875,313.826 56.700 C 313.460 57.525,312.990 58.513,312.781 58.895 C 312.571 59.277,312.400 59.862,312.400 60.195 C 312.400 60.528,312.220 60.800,312.000 60.800 C 311.780 60.800,311.600 61.235,311.600 61.767 C 311.600 62.298,311.459 62.793,311.288 62.867 C 310.715 63.111,309.600 70.224,309.600 73.635 C 309.600 94.415,327.574 109.846,346.135 105.001 C 368.790 99.089,376.451 69.573,359.863 52.111 C 352.766 44.639,343.839 41.801,331.500 43.091 M254.279 47.454 C 254.140 47.594,253.705 47.746,253.313 47.792 C 251.688 47.984,250.000 48.523,250.000 48.850 C 250.000 49.043,249.652 49.200,249.227 49.200 C 248.802 49.200,248.340 49.560,248.200 50.000 C 248.060 50.440,247.689 50.800,247.374 50.800 C 247.059 50.800,246.134 51.430,245.318 52.200 C 244.501 52.970,243.680 53.600,243.493 53.600 C 243.306 53.600,243.264 53.780,243.400 54.000 C 243.536 54.220,243.457 54.400,243.224 54.400 C 242.991 54.400,242.800 54.720,242.800 55.112 C 242.800 55.503,242.440 56.083,242.000 56.400 C 241.560 56.717,241.200 57.387,241.200 57.888 C 241.200 58.390,241.020 58.800,240.800 58.800 C 240.580 58.800,240.400 59.421,240.400 60.180 C 240.400 60.939,240.175 61.704,239.900 61.880 C 239.625 62.056,239.361 62.650,239.312 63.200 C 238.723 69.923,238.729 71.119,239.359 73.600 C 243.006 87.944,259.280 94.886,273.800 88.292 C 276.516 87.059,284.310 80.400,283.038 80.400 C 282.765 80.400,281.259 81.633,279.691 83.140 C 265.207 97.060,239.370 88.080,239.631 69.216 L 239.661 67.000 240.372 69.400 C 244.867 84.579,264.097 89.544,275.253 78.407 C 285.678 68.000,280.430 52.139,265.138 47.836 C 262.897 47.206,254.812 46.921,254.279 47.454 M121.999 73.300 C 122.000 73.465,121.201 73.600,120.224 73.600 C 119.247 73.600,118.336 73.780,118.200 74.000 C 118.064 74.220,117.333 74.400,116.576 74.400 C 115.819 74.400,115.200 74.580,115.200 74.800 C 115.200 75.020,114.750 75.200,114.200 75.200 C 113.650 75.200,113.200 75.380,113.200 75.600 C 113.200 75.820,112.660 76.000,112.000 76.000 C 111.340 76.000,110.800 76.180,110.800 76.400 C 110.800 76.620,110.440 76.800,110.000 76.800 C 109.560 76.800,109.199 76.935,109.199 77.100 C 109.198 77.265,108.388 77.733,107.399 78.140 C 106.409 78.546,105.600 79.041,105.600 79.240 C 105.600 79.438,105.401 79.600,105.158 79.600 C 104.736 79.600,103.306 80.881,99.385 84.772 C 98.403 85.746,97.600 86.871,97.600 87.272 C 97.600 87.672,97.420 88.000,97.200 88.000 C 96.980 88.000,96.800 88.270,96.800 88.600 C 96.800 88.930,96.620 89.200,96.400 89.200 C 96.180 89.200,96.000 89.635,96.000 90.167 C 96.000 90.698,95.818 91.194,95.596 91.268 C 94.898 91.501,94.616 98.954,95.207 101.512 C 100.443 124.137,142.475 130.676,160.127 111.610 C 170.789 100.093,166.307 85.666,149.432 77.186 C 147.986 76.459,146.874 75.793,146.962 75.705 C 147.050 75.617,147.455 75.719,147.861 75.933 C 148.267 76.147,149.410 76.552,150.400 76.833 C 164.732 80.903,174.100 96.108,169.680 108.129 C 161.426 130.575,120.365 135.985,101.486 117.113 C 99.378 115.006,98.530 114.412,97.686 114.454 C 96.788 114.500,96.750 114.538,97.471 114.678 C 97.950 114.772,98.800 115.448,99.359 116.182 C 108.136 127.690,131.896 132.645,149.483 126.635 C 178.746 116.637,178.985 86.106,149.882 75.789 C 148.167 75.181,146.524 74.341,146.232 73.924 C 145.600 73.021,145.030 73.892,145.482 75.069 C 145.671 75.562,145.575 75.676,145.115 75.500 C 144.225 75.158,139.815 74.144,137.000 73.633 C 134.212 73.127,121.999 72.856,121.999 73.300 M238.000 105.208 C 221.821 108.033,215.453 126.475,226.799 137.647 C 236.927 147.620,255.787 145.825,262.760 134.226 C 272.107 118.677,257.682 101.773,238.000 105.208 M254.397 108.149 C 268.437 114.913,268.140 134.254,253.892 141.021 C 240.343 147.455,224.378 140.507,222.058 127.167 C 221.265 122.606,221.729 121.831,222.974 125.637 C 227.007 137.966,244.900 141.822,254.857 132.508 C 262.584 125.280,261.383 114.593,252.151 108.418 C 248.638 106.069,249.791 105.930,254.397 108.149 M155.400 158.370 C 142.531 160.418,138.014 179.148,148.183 188.300 C 153.972 193.511,163.539 193.614,169.197 188.527 C 182.384 176.670,172.748 155.609,155.400 158.370 M166.211 160.720 C 177.802 166.753,177.101 184.711,165.060 190.224 C 154.822 194.911,143.079 186.731,143.225 175.016 L 143.250 173.000 143.993 175.258 C 146.932 184.192,154.380 188.094,161.868 184.624 C 171.201 180.301,172.258 167.424,163.809 160.980 C 161.274 159.046,162.699 158.892,166.211 160.720 M274.200 166.243 C 245.258 171.407,228.710 197.530,238.832 222.077 C 248.823 246.305,282.359 256.627,308.633 243.560 C 336.998 229.453,340.543 193.931,315.426 175.484 C 304.264 167.286,288.348 163.718,274.200 166.243 M307.318 171.519 C 343.639 188.992,337.786 236.301,298.000 246.836 C 273.317 253.371,245.072 240.490,238.719 219.800 C 237.293 215.153,236.367 209.831,236.437 206.671 C 236.467 205.292,236.596 205.594,237.173 208.400 C 241.514 229.501,258.773 242.800,281.818 242.800 C 327.387 242.800,343.455 191.362,304.200 171.147 C 298.837 168.386,301.453 168.698,307.318 171.519 M68.801 205.300 C 68.800 205.465,67.990 205.600,67.000 205.600 C 66.010 205.600,65.200 205.780,65.200 206.000 C 65.200 206.220,64.660 206.400,64.000 206.400 C 63.340 206.400,62.800 206.557,62.800 206.749 C 62.800 206.941,62.054 207.217,61.142 207.363 C 60.230 207.509,59.015 207.943,58.442 208.328 C 57.869 208.714,56.905 209.278,56.300 209.582 C 55.695 209.886,55.200 210.285,55.200 210.468 C 55.200 210.650,54.917 210.800,54.571 210.800 C 53.826 210.800,52.731 211.797,53.086 212.152 C 53.222 212.289,52.964 212.400,52.513 212.400 C 52.060 212.400,50.911 213.219,49.946 214.231 C 48.986 215.238,47.165 217.068,45.900 218.298 C 44.635 219.528,43.600 220.824,43.600 221.179 C 43.600 221.533,43.240 222.083,42.800 222.400 C 42.360 222.717,42.000 223.179,42.000 223.426 C 42.000 223.674,41.675 224.170,41.278 224.529 C 40.881 224.889,40.307 225.817,40.003 226.591 C 39.699 227.366,39.320 228.000,39.161 228.000 C 39.001 228.000,38.749 228.720,38.600 229.600 C 38.451 230.480,38.166 231.200,37.965 231.200 C 37.764 231.200,37.600 231.650,37.600 232.200 C 37.600 232.750,37.420 233.200,37.200 233.200 C 36.980 233.200,36.800 233.652,36.800 234.205 C 36.800 234.758,36.631 235.523,36.425 235.905 C 35.418 237.773,34.000 247.012,34.000 251.707 C 34.000 281.517,57.505 304.349,82.930 299.234 C 123.778 291.017,130.383 228.749,92.488 209.113 C 88.403 206.996,90.947 207.221,95.490 209.379 C 125.056 223.420,132.109 268.514,108.453 292.264 C 106.474 294.251,105.610 295.415,105.632 296.064 C 105.652 296.668,105.743 296.787,105.888 296.400 C 106.012 296.070,107.575 294.270,109.361 292.400 C 136.458 264.031,122.527 212.920,85.652 205.410 C 82.208 204.708,68.803 204.621,68.801 205.300 M154.600 232.386 C 135.034 234.627,126.053 255.208,138.994 268.149 C 152.610 281.766,179.522 276.794,184.806 259.687 C 189.605 244.149,174.117 230.150,154.600 232.386 M172.869 236.100 C 186.000 242.799,188.839 257.906,178.821 267.767 C 163.613 282.738,133.357 273.519,133.638 254.000 L 133.664 252.200 134.550 254.825 C 137.714 264.197,145.965 269.447,157.400 269.366 C 179.742 269.208,188.264 246.239,169.853 235.803 C 166.131 233.693,168.635 233.939,172.869 236.100 M333.200 258.209 C 326.795 259.141,325.045 259.779,320.885 262.698 C 312.456 268.611,309.951 278.950,314.510 289.000 C 316.030 292.349,315.937 292.196,316.259 291.874 C 316.402 291.732,315.883 290.217,315.106 288.508 C 313.524 285.026,312.792 282.073,312.817 279.280 L 312.834 277.400 313.946 280.693 C 320.165 299.113,348.373 299.523,354.010 281.275 C 357.042 271.456,350.832 262.442,338.513 258.782 C 337.586 258.506,336.921 258.128,337.037 257.940 C 337.153 257.753,337.102 257.626,336.924 257.657 C 336.746 257.688,335.070 257.937,333.200 258.209 M265.600 305.810 C 265.270 305.875,263.650 306.139,262.000 306.397 C 260.350 306.655,258.460 307.027,257.800 307.222 C 257.140 307.418,255.610 307.875,254.400 308.237 C 238.741 312.929,230.681 328.407,239.069 337.676 C 239.445 338.092,239.607 338.729,239.470 339.252 C 239.255 340.077,239.282 340.089,239.917 339.455 C 240.551 338.820,240.551 338.712,239.916 337.690 C 238.161 334.864,237.429 333.213,236.949 331.000 C 235.980 326.536,236.485 325.810,237.992 329.500 C 242.215 339.842,261.557 346.562,279.104 343.783 C 305.829 339.551,313.118 320.638,292.021 310.271 C 289.416 308.990,290.546 308.796,293.600 310.000 C 294.716 310.440,296.388 310.779,297.315 310.754 L 299.000 310.708 297.600 310.430 C 296.830 310.278,294.940 309.678,293.400 309.099 C 285.645 306.179,271.973 304.562,265.600 305.810 " stroke="none" fill="#049bb3" fill-rule="evenodd"></path><path id="path2" d="M192.800 59.209 C 192.800 59.427,191.559 59.600,190.000 59.600 C 188.400 59.600,187.200 59.771,187.200 60.000 C 187.200 60.226,186.067 60.400,184.600 60.400 C 183.133 60.400,182.000 60.574,182.000 60.800 C 182.000 61.020,181.201 61.200,180.224 61.200 C 179.247 61.200,178.336 61.380,178.200 61.600 C 178.064 61.820,177.153 62.000,176.176 62.000 C 175.199 62.000,174.400 62.180,174.400 62.400 C 174.400 62.620,174.152 62.800,173.848 62.800 C 173.545 62.800,172.288 63.262,171.055 63.826 C 168.087 65.185,163.766 66.400,161.901 66.400 C 161.076 66.400,160.400 66.572,160.400 66.782 C 160.400 66.992,159.770 67.282,159.000 67.426 C 158.230 67.571,157.600 67.849,157.600 68.045 C 157.600 68.240,157.195 68.406,156.700 68.413 C 156.205 68.420,155.458 68.684,155.041 69.000 C 154.624 69.316,154.129 69.480,153.941 69.364 C 153.753 69.248,153.600 69.343,153.600 69.576 C 153.600 69.809,153.150 70.000,152.600 70.000 C 152.050 70.000,151.600 70.180,151.600 70.400 C 151.600 70.620,151.169 70.800,150.643 70.800 C 150.116 70.800,149.578 71.081,149.446 71.425 C 149.314 71.769,149.015 71.933,148.782 71.789 C 148.548 71.644,148.007 71.931,147.579 72.424 C 147.150 72.918,146.800 73.169,146.800 72.981 C 146.800 72.794,146.592 72.848,146.337 73.103 C 145.570 73.870,146.544 74.606,149.908 75.798 C 178.985 86.106,178.730 116.643,149.483 126.635 C 131.878 132.651,108.137 127.690,99.341 116.158 C 97.818 114.161,96.194 114.605,94.803 117.400 C 94.474 118.060,93.914 118.870,93.558 119.200 C 93.202 119.530,92.400 120.745,91.776 121.900 C 91.153 123.055,90.498 124.000,90.321 124.000 C 90.145 124.000,90.000 124.270,90.000 124.600 C 90.000 124.930,89.820 125.200,89.600 125.200 C 89.380 125.200,89.200 125.573,89.200 126.029 C 89.200 126.484,88.975 127.094,88.700 127.384 C 87.694 128.445,86.634 130.085,86.540 130.727 C 86.487 131.089,86.254 131.449,86.022 131.526 C 85.790 131.603,85.600 132.012,85.600 132.433 C 85.600 132.855,85.459 133.200,85.288 133.200 C 84.887 133.200,83.871 135.630,83.975 136.340 C 84.018 136.637,83.881 136.773,83.669 136.643 C 83.458 136.512,83.173 136.854,83.035 137.403 C 82.897 137.951,82.608 138.400,82.392 138.400 C 82.177 138.400,82.000 138.850,82.000 139.400 C 82.000 139.950,81.820 140.400,81.600 140.400 C 81.380 140.400,81.200 140.760,81.200 141.200 C 81.200 141.640,81.020 142.000,80.800 142.000 C 80.580 142.000,80.400 142.551,80.400 143.224 C 80.400 143.897,80.258 144.360,80.085 144.252 C 79.912 144.145,79.730 144.540,79.681 145.129 C 79.633 145.718,79.410 146.261,79.187 146.337 C 78.630 146.524,77.600 149.079,77.600 150.272 C 77.600 150.820,77.425 151.139,77.200 151.000 C 76.958 150.850,76.800 151.404,76.800 152.400 C 76.800 153.396,76.642 153.950,76.400 153.800 C 76.167 153.656,76.000 154.063,76.000 154.776 C 76.000 155.449,75.858 156.000,75.685 156.000 C 75.512 156.000,75.326 156.585,75.272 157.300 C 75.219 158.015,74.999 158.660,74.785 158.734 C 74.570 158.808,74.497 159.033,74.621 159.234 C 74.745 159.435,74.646 159.600,74.400 159.600 C 74.128 159.600,74.026 160.067,74.139 160.788 C 74.251 161.497,74.157 161.940,73.906 161.888 C 73.362 161.774,72.418 165.311,72.408 167.500 C 72.403 168.435,72.220 169.200,72.000 169.200 C 71.780 169.200,71.600 170.100,71.600 171.200 C 71.600 172.300,71.420 173.200,71.200 173.200 C 70.974 173.200,70.800 174.333,70.800 175.800 C 70.800 177.230,70.634 178.400,70.432 178.400 C 69.859 178.400,69.550 183.677,69.472 194.800 L 69.400 205.000 75.800 204.852 C 99.759 204.297,117.870 220.377,122.821 246.600 C 123.498 250.189,123.517 261.012,122.851 264.400 C 120.445 276.640,116.396 285.040,109.356 292.400 C 105.039 296.912,105.040 296.908,107.992 299.992 C 109.317 301.375,110.400 302.663,110.400 302.853 C 110.400 303.044,110.594 303.200,110.831 303.200 C 111.067 303.200,112.397 304.370,113.785 305.800 C 115.174 307.230,116.600 308.400,116.955 308.400 C 117.310 308.400,117.600 308.574,117.600 308.787 C 117.600 308.999,118.220 309.764,118.978 310.487 C 120.977 312.392,121.513 312.800,122.012 312.800 C 122.617 312.800,123.622 313.844,123.314 314.152 C 123.178 314.289,123.345 314.400,123.686 314.400 C 124.026 314.400,124.866 314.974,125.553 315.676 C 126.239 316.378,126.800 316.821,126.800 316.660 C 126.800 316.370,127.360 316.767,128.829 318.100 C 129.253 318.485,129.870 318.800,130.200 318.800 C 130.530 318.800,130.800 318.980,130.800 319.200 C 130.800 319.420,131.100 319.600,131.467 319.600 C 131.833 319.600,132.022 319.711,131.886 319.848 C 131.373 320.360,134.719 322.400,136.072 322.400 C 136.375 322.400,136.883 322.760,137.200 323.200 C 137.517 323.640,137.979 324.000,138.226 324.000 C 138.474 324.000,139.002 324.360,139.400 324.800 C 139.798 325.240,140.366 325.600,140.662 325.600 C 140.958 325.600,141.200 325.810,141.200 326.067 C 141.200 326.323,141.310 326.424,141.444 326.289 C 141.578 326.155,142.340 326.395,143.138 326.823 C 143.936 327.250,144.816 327.600,145.094 327.600 C 145.372 327.600,145.600 327.780,145.600 328.000 C 145.600 328.220,145.960 328.400,146.400 328.400 C 146.840 328.400,147.200 328.591,147.200 328.824 C 147.200 329.057,147.361 329.148,147.558 329.026 C 147.755 328.904,148.006 329.038,148.116 329.324 C 148.225 329.610,149.054 330.088,149.957 330.386 C 150.861 330.684,151.600 331.079,151.600 331.264 C 151.600 331.449,152.140 331.600,152.800 331.600 C 153.460 331.600,154.000 331.791,154.000 332.024 C 154.000 332.257,154.168 332.344,154.372 332.217 C 154.577 332.091,154.858 332.170,154.996 332.393 C 155.134 332.617,155.756 332.800,156.377 332.800 C 157.171 332.800,157.569 333.038,157.716 333.602 C 157.857 334.138,158.138 334.322,158.566 334.158 C 158.918 334.023,159.648 334.202,160.189 334.556 C 160.730 334.910,161.538 335.200,161.986 335.200 C 162.434 335.200,162.800 335.360,162.800 335.555 C 162.800 335.750,163.295 336.005,163.900 336.122 C 164.505 336.239,165.630 336.455,166.400 336.601 C 167.170 336.747,167.971 337.031,168.180 337.233 C 168.389 337.435,169.045 337.600,169.637 337.600 C 170.230 337.600,170.807 337.840,170.919 338.134 C 171.034 338.432,171.789 338.693,172.633 338.724 C 173.462 338.755,174.244 338.927,174.371 339.105 C 174.497 339.283,175.320 339.484,176.200 339.552 C 177.080 339.619,177.980 339.819,178.200 339.994 C 178.420 340.170,179.410 340.418,180.400 340.546 C 181.390 340.673,183.370 340.956,184.800 341.174 C 192.397 342.335,195.193 342.449,211.800 342.275 C 221.260 342.175,229.270 342.010,229.600 341.908 C 229.930 341.805,230.470 341.614,230.800 341.483 C 231.130 341.351,232.300 341.151,233.400 341.038 C 239.500 340.408,240.824 339.615,239.050 337.655 C 235.760 334.019,235.080 325.919,237.634 320.772 C 244.612 306.708,272.430 301.088,294.148 309.354 C 297.570 310.657,298.575 310.665,299.675 309.400 C 300.153 308.850,300.761 308.400,301.026 308.400 C 301.291 308.400,301.803 307.950,302.163 307.400 C 302.524 306.850,303.000 306.400,303.222 306.400 C 303.722 306.400,307.600 302.436,307.600 301.925 C 307.600 301.720,307.735 301.622,307.900 301.708 C 308.065 301.793,308.961 301.083,309.891 300.131 C 310.821 299.179,311.496 298.400,311.391 298.400 C 311.144 298.400,312.175 297.206,314.300 295.034 C 316.331 292.958,316.335 292.904,314.758 289.600 C 307.617 274.639,316.329 259.952,333.380 258.204 C 337.135 257.819,338.000 257.450,338.000 256.230 C 338.000 255.685,338.225 255.096,338.500 254.920 C 339.341 254.382,341.200 249.804,341.200 248.272 C 341.200 247.902,341.350 247.600,341.533 247.600 C 341.717 247.600,341.890 247.375,341.919 247.100 C 342.254 243.867,342.621 242.549,343.349 241.960 C 344.082 241.366,344.110 241.209,343.600 240.546 C 343.285 240.136,343.183 239.932,343.374 240.094 C 343.565 240.255,343.948 240.077,344.226 239.696 C 344.509 239.310,344.572 238.906,344.369 238.781 C 344.170 238.658,344.365 237.853,344.803 236.994 C 345.241 236.134,345.600 234.659,345.600 233.715 C 345.600 232.772,345.763 232.000,345.961 232.000 C 346.160 232.000,346.421 231.145,346.541 230.100 C 346.661 229.055,346.852 227.570,346.966 226.800 C 347.079 226.030,347.295 223.639,347.447 221.486 C 347.598 219.333,347.875 217.477,348.061 217.362 C 348.512 217.083,348.500 184.109,348.048 183.830 C 347.855 183.710,347.566 181.495,347.405 178.906 C 347.245 176.318,346.962 173.914,346.777 173.564 C 346.592 173.214,346.395 172.167,346.340 171.238 C 346.285 170.309,346.096 169.460,345.920 169.351 C 345.744 169.242,345.600 168.389,345.600 167.456 C 345.600 166.523,345.433 165.589,345.229 165.380 C 345.025 165.171,344.794 164.418,344.715 163.707 C 344.636 162.996,344.225 162.160,343.801 161.850 C 343.161 161.382,343.117 161.182,343.542 160.670 C 343.966 160.159,343.921 159.921,343.279 159.279 C 342.800 158.800,342.398 157.650,342.225 156.259 C 342.070 155.023,341.777 153.909,341.572 153.783 C 341.367 153.656,341.200 153.124,341.200 152.600 C 341.200 152.076,341.020 151.536,340.800 151.400 C 340.580 151.264,340.400 150.623,340.400 149.976 C 340.400 149.329,340.220 148.800,340.000 148.800 C 339.780 148.800,339.600 148.333,339.600 147.763 C 339.600 147.082,339.340 146.657,338.846 146.528 C 338.329 146.393,338.011 145.829,337.837 144.743 C 337.516 142.732,336.421 140.165,334.301 136.445 C 333.848 135.650,333.100 134.280,332.638 133.400 C 332.177 132.520,331.710 131.710,331.600 131.600 C 331.490 131.490,331.380 131.220,331.357 131.000 C 331.254 130.061,330.680 128.800,330.353 128.800 C 330.159 128.800,330.000 128.513,330.000 128.163 C 330.000 127.812,329.640 127.431,329.200 127.316 C 328.760 127.201,328.400 126.780,328.400 126.380 C 328.400 125.637,326.125 121.637,325.401 121.106 C 325.181 120.944,325.167 120.809,325.372 120.806 C 325.577 120.803,325.213 120.305,324.564 119.700 C 323.914 119.095,323.120 118.060,322.799 117.400 C 322.166 116.098,319.830 112.993,318.702 111.953 C 318.316 111.597,318.000 111.102,318.000 110.853 C 318.000 110.604,317.820 110.400,317.600 110.400 C 317.380 110.400,317.200 110.157,317.200 109.860 C 317.200 109.563,316.210 108.413,315.000 107.305 C 313.790 106.196,312.800 105.098,312.800 104.865 C 312.800 104.631,311.632 103.306,310.204 101.920 C 308.776 100.534,307.606 99.175,307.604 98.900 C 307.602 98.625,307.411 98.400,307.181 98.400 C 306.950 98.400,305.494 97.140,303.945 95.600 C 302.395 94.060,300.961 92.800,300.757 92.800 C 300.553 92.800,299.625 92.026,298.693 91.080 C 297.123 89.484,295.797 88.445,293.950 87.365 C 293.541 87.125,292.566 86.270,291.784 85.465 C 291.002 84.659,290.100 84.000,289.781 84.000 C 289.461 84.000,289.200 83.820,289.200 83.600 C 289.200 83.380,289.065 83.244,288.900 83.298 C 288.586 83.400,286.814 82.246,285.631 81.169 C 284.407 80.054,283.280 80.581,279.895 83.849 C 263.457 99.724,234.925 86.371,239.191 64.800 C 239.890 61.266,239.778 61.188,233.100 60.549 C 231.835 60.428,230.800 60.180,230.800 59.997 C 230.800 59.394,225.184 59.131,208.900 58.973 C 198.560 58.873,192.800 58.957,192.800 59.209 M249.949 105.613 C 274.227 112.340,268.821 144.115,243.400 144.105 C 224.312 144.097,214.215 124.722,226.255 111.209 C 230.984 105.901,241.785 103.350,249.949 105.613 M165.090 159.265 C 174.388 162.733,178.278 176.456,172.390 185.015 C 163.015 198.641,142.790 192.098,142.668 175.400 C 142.576 162.675,153.382 154.899,165.090 159.265 M294.257 166.391 C 300.412 167.626,306.209 169.783,311.632 172.858 C 340.286 189.102,338.608 228.652,308.633 243.560 C 268.936 263.303,223.262 229.708,239.002 192.343 C 247.121 173.070,271.192 161.764,294.257 166.391 M167.533 233.242 C 185.660 238.059,191.656 257.460,178.610 269.088 C 163.525 282.533,135.772 275.143,133.164 256.987 C 130.788 240.445,148.524 228.192,167.533 233.242 " stroke="none" fill="#0ce3eb" fill-rule="evenodd"></path></g></svg>